HIERARCHY
ROOT Hips
{
	OFFSET	0	0	0
	CHANNELS 6  Xposition Yposition Zposition Xrotation Yrotation Zrotation
	JOINT Spine
	{
		OFFSET	0	3.33796	0.672814
		CHANNELS 3  Xrotation Yrotation Zrotation
		JOINT Spine1
		{
			OFFSET	0	5.7377	-1.02459
			CHANNELS 3  Xrotation Yrotation Zrotation
			JOINT Spine2
			{
				OFFSET	0	4.34938	0.466188
				CHANNELS 3  Xrotation Yrotation Zrotation
				JOINT Spine3
				{
					OFFSET	0	5.20492	1.54713
					CHANNELS 3  Xrotation Yrotation Zrotation
					JOINT Spine4
					{
						OFFSET	0	7.70492	-0.788934
						CHANNELS 3  Xrotation Yrotation Zrotation
						JOINT Neck
						{
							OFFSET	0	3.67828	-2.57684
							CHANNELS 3  Xrotation Yrotation Zrotation
							JOINT Head
							{
								OFFSET	0	4.41598	-1.32172
								CHANNELS 3  Xrotation Yrotation Zrotation
								End Site
								{
									OFFSET	0	9.21106	-0.445697
								}
							}
						}
					}
					JOINT LeftShoulder
					{
						OFFSET	-2.21311	9.36475	-4.41598
						CHANNELS 3  Xrotation Yrotation Zrotation
						JOINT LeftArm
						{
							OFFSET	-4.85376	-1.32172	1.69571
							CHANNELS 3  Xrotation Yrotation Zrotation
							JOINT LeftForeArm
							{
								OFFSET	-15.4011	-0.70293	1.09931
								CHANNELS 3  Xrotation Yrotation Zrotation
								JOINT LeftHand
								{
									OFFSET	-12.5503	-0.867294	0.895825
									CHANNELS 3  Xrotation Yrotation Zrotation
									End Site
									{
										OFFSET	-4.58023	-0.316519	0.32691
									}
								}
							}
						}
					}
					JOINT RightShoulder
					{
						OFFSET	2.21311	9.36475	-4.41598
						CHANNELS 3  Xrotation Yrotation Zrotation
						JOINT RightArm
						{
							OFFSET	4.85376	-1.32172	1.69571
							CHANNELS 3  Xrotation Yrotation Zrotation
							JOINT RightForeArm
							{
								OFFSET	15.4011	-0.70293	1.09931
								CHANNELS 3  Xrotation Yrotation Zrotation
								JOINT RightHand
								{
									OFFSET	12.5503	-0.867294	0.895825
									CHANNELS 3  Xrotation Yrotation Zrotation
									End Site
									{
										OFFSET	4.58023	-0.316519	0.32691
									}
								}
							}
						}
					}
				}
			}
		}
	}
	JOINT LeftUpLeg
	{
		OFFSET	-4.52345	-1.66898	-0.336407
		CHANNELS 3  Xrotation Yrotation Zrotation
		JOINT LeftLeg
		{
			OFFSET	-1.07058	-20.9775	-0.327925
			CHANNELS 3  Xrotation Yrotation Zrotation
			JOINT LeftFoot
			{
				OFFSET	-1.04647	-19.2898	1.65892
				CHANNELS 3  Xrotation Yrotation Zrotation
				JOINT LeftToeBase
				{
					OFFSET	0	-2.41787	-6.42188
					CHANNELS 3  Xrotation Yrotation Zrotation
					End Site
					{
						OFFSET	0	-0.967151	-3.8686
					}
				}
			}
		}
	}
	JOINT RightUpLeg
	{
		OFFSET	4.52345	-1.66898	-0.336407
		CHANNELS 3  Xrotation Yrotation Zrotation
		JOINT RightLeg
		{
			OFFSET	1.07058	-20.9775	-0.327925
			CHANNELS 3  Xrotation Yrotation Zrotation
			JOINT RightFoot
			{
				OFFSET	1.04647	-19.2898	1.65892
				CHANNELS 3  Xrotation Yrotation Zrotation
				JOINT RightToeBase
				{
					OFFSET	0	-2.41787	-6.42188
					CHANNELS 3  Xrotation Yrotation Zrotation
					End Site
					{
						OFFSET	0	-0.967151	-3.8686
					}
				}
			}
		}
	}
}
MOTION
Frames: 10
Frame Time: 0.033334
 -0.826928 45.2498 -41.2776 0.379567 -142.613 1.37765 0.0001126 -0.00404422 1.59483 4.98597 -0.00808287 2.65806 6.023 -0.0242486 2.65806 6.43268 -0.00404422 1.59483 174.408 -179.948 -179.471 158.983 -174.754 166.508 173.772 -175.133 175.893 176.117 -151.818 171.542 26.9631 -8.31108 25.3498 43.3137 -123.541 38.1006 -0 -3.71424 15.1649 169.34 153.483 -156.315 85.2931 -44.4071 18.7492 98.5784 -9.07926 -46.4878 -0 6.7753 -12.3054 178.65 157.43 175.685 136.501 178.585 177.116 170.521 -179.994 -165.797 28.6272 0 0 16.643 9.85432 -20.3328 163.244 -163.272 -166.26 177.433 -179.937 170.493 28.6446 0 0
 -1.60896 45.2562 -41.8145 1.05936 -137.537 1.90651 0.000207672 -0.00742937 1.60116 5.04858 -0.0148484 2.6686 6.07704 -0.0445453 2.6686 6.44668 -0.00742937 1.60116 174.493 -179.949 -179.469 159.175 -174.269 166.705 173.818 -174.196 175.82 176.077 -151.723 171.457 27.1152 -9.96484 25.7787 44.455 -122.713 39.4203 -0 -2.89012 15.5677 169.286 153.643 -156.187 86.4336 -44.2765 20.1303 98.3091 -9.20419 -47.5123 -0 7.03394 -12.8075 176.552 157.551 175.977 138.064 -179.455 177.547 168.868 179.999 -165.673 28.6158 0 0 18.5164 8.33646 -18.1926 162.997 -161.074 -168.091 176.652 -179.983 170.745 28.6404 0 0
 -2.41592 45.1989 -42.5857 0.826125 -132.257 1.41906 180 179.992 -178.345 5.12458 0.0153143 2.75774 6.15119 0.0459428 2.75774 6.50094 0.00766281 1.65464 174.512 -179.947 -179.451 159.171 -173.949 166.983 173.802 -173.451 175.792 175.862 -151.932 170.983 27.5104 -12.2941 26.4035 45.4323 -121.999 40.9473 -0 -2.18454 15.6863 169.315 153.822 -156.255 87.5896 -44.0553 22.6113 98.2631 -9.24772 -48.2662 -0 7.36074 -13.4413 174.18 156.583 176.578 143.284 -178.132 178.652 171.982 -179.984 -165.672 28.6044 0 0 20.6779 5.5161 -15.2566 161.075 -158.171 -170.232 175.386 179.998 171.04 28.637 0 0
 -3.39903 45.2462 -43.1526 2.27175 -127.363 2.25649 180 179.998 -178.296 5.19159 0.00399093 2.83936 6.26103 0.0119728 2.83937 6.67065 0.00199703 1.70362 174.242 -179.943 -179.435 158.368 -173.872 167.173 173.542 -172.849 175.749 175.866 -152.643 170.992 28.4517 -13.0785 27.1398 47.3707 -121.091 43.081 -0 -1.2719 15.4603 169.383 154.29 -156.412 88.5947 -43.7761 24.9368 98.1179 -9.39128 -48.9972 -0 7.76852 -14.381 172.765 155.814 176.841 150.353 -177.026 179.044 173.53 -179.978 -165.665 28.5958 0 0 23.3484 2.80227 -12.4852 157.423 -155.758 -172.081 174.416 179.988 171.145 28.6347 0 0
 -4.25438 45.3843 -43.9557 3.43923 -122.561 2.79617 180 179.998 -178.218 5.2236 0.00426677 2.97053 6.28661 0.0128003 2.97053 6.67285 0.00213522 1.78232 174.297 -179.941 -179.409 158.549 -173.854 168.567 173.571 -172.35 176.038 176.142 -152.577 171.598 29.6229 -13.3929 28.0107 50.826 -119.767 46.9109 -0 -0.151703 15.0954 169.572 153.823 -156.852 89.0212 -43.713 26.1268 98.0266 -9.3915 -49.0068 -0 8.04802 -15.0279 172.575 155.259 176.348 157.809 -176.079 179.733 176.56 -179.963 -165.66 28.5882 0 0 26.3558 0.463278 -9.43026 154.029 -154.12 -173.932 170.626 -179.991 171.11 28.6304 0 0
 -5.34191 45.3952 -44.9464 4.30169 -118.928 3.19184 8.45316e-07 -2.58278e-05 1.87456 5.17765 -5.16064e-05 3.12427 6.26689 -0.000154819 3.12427 6.71947 -2.58278e-05 1.87456 174.102 -179.936 -179.378 158.064 -173.896 169.152 173.409 -172.012 176.132 176.455 -151.712 172.283 30.4562 -14.1153 29.1355 56.2289 -118.051 52.9088 -0 1.13912 14.6631 169.827 153.422 -157.445 88.2901 -43.3769 25.1326 97.832 -9.56545 -50.6951 -0 8.38218 -15.655 172.599 154.592 177.159 163.655 -175.35 -179.048 2.16326 -0.0119178 14.3183 28.5832 0 0 29.8729 -1.71613 -5.97923 150.721 -152.818 -176.407 166.025 -179.997 171.064 28.6248 0 0
 -6.30042 45.3492 -45.9645 5.56197 -116.627 4.10646 0.000235874 -0.00731617 1.84658 5.12014 -0.0146188 3.07764 6.21709 -0.0438565 3.07764 6.69926 -0.00731617 1.84658 174.039 -179.936 -179.388 157.959 -173.82 169.566 173.366 -171.67 176.188 176.222 -151.781 171.773 32.4585 -15.2474 29.2295 61.3911 -116.993 58.5771 -0 2.42551 14.1536 170.053 153.358 -157.968 86.2929 -43.012 21.9227 97.3372 -9.76861 -52.8552 -0 8.29733 -16.2652 173.874 154.136 177.556 167.554 -174.657 -177.554 5.65942 -0.0212433 14.3122 28.597 0 0 33.5442 -3.78044 -2.17499 147.488 -152.03 -179.576 160.819 179.985 170.882 28.6205 0 0
 -7.30064 45.2596 -46.7367 7.62771 -114.416 5.64407 0.000312465 -0.00960638 1.86299 5.07785 -0.0191947 3.10499 6.18404 -0.0575841 3.10499 6.69717 -0.00960638 1.86299 173.964 -179.935 -179.382 157.791 -173.662 169.628 173.306 -171.272 176.145 176.092 -151.882 171.488 34.8357 -15.7613 29.0117 65.3799 -116.598 62.9413 -0 3.69656 13.6638 170.077 153.296 -158.023 85.5558 -42.6847 20.2812 97.3561 -9.73469 -53.316 -0 8.56501 -16.7991 175.6 153.678 178.13 170.416 -174.211 -176.535 8.10548 -0.0163388 14.2859 28.6271 0 0 37.2548 -5.38305 1.29429 143.334 -151.789 178.011 157.654 -179.975 170.679 28.61 0 0
 -8.49655 45.2395 -47.2243 10.9325 -112.058 9.24446 0.000408913 -0.0125455 1.86686 5.05161 -0.0250673 3.11144 6.08619 -0.0752017 3.11144 6.4628 -0.0125455 1.86686 174.461 -179.94 -179.381 159.247 -173.164 170.367 173.73 -170.545 176.264 175.945 -151.782 171.166 37.2701 -16.6795 28.9569 66.9038 -116.706 64.5819 -0 4.77882 13.1487 170.362 153.14 -158.68 85.2739 -42.8573 18.9349 97.5049 -9.56803 -51.9567 -0 8.83119 -17.2087 178.201 153.695 178.023 172.881 -173.771 -177.324 9.26755 -0.0609882 14.2224 28.6481 0 0 39.8118 -6.18321 4.02429 137.636 -152.735 176.357 157.191 -179.954 170.406 28.5906 0 0
 -9.52357 45.3279 -47.6246 13.5006 -110.116 12.2428 0.00024854 -0.00749425 1.89947 5.00234 -0.0149739 3.16578 5.96621 -0.0449216 3.16578 6.22124 -0.00749425 1.89947 174.932 -179.944 -179.369 160.663 -172.68 171.261 174.138 -169.706 176.414 175.534 -151.976 170.263 38.219 -17.6119 28.5193 66.2023 -116.962 63.7747 -0 5.3756 12.8413 170.402 153.226 -158.77 85.6618 -42.7747 18.5374 97.9083 -9.42556 -50.3186 -0 9.32664 -17.4113 0.52854 26.0285 -1.9404 174.516 -173.152 -178.066 8.95492 -0.065693 14.1578 28.6498 0 0 42.0243 -6.8547 6.31628 132.258 -154.893 174.053 156.995 -179.938 169.912 28.556 0 0
